0
SECTION
2
HEADER
9
$ACADVER
1
AC1009
0
ENDSEC
0
SECTION
2
TABLES
0
TABLE
2
LAYER
70
12
0
LAYER
2
BORDER
70
0
62
7
6
CONTINUOUS
0
LAYER
2
TITLE
70
0
62
7
6
CONTINUOUS
0
LAYER
2
VISIBLE
70
0
62
7
6
CONTINUOUS
0
LAYER
2
HIDDEN
70
0
62
8
6
CONTINUOUS
0
LAYER
2
CENTER
70
0
62
5
6
CONTINUOUS
0
LAYER
2
DIM
70
0
62
2
6
CONTINUOUS
0
LAYER
2
TEXT
70
0
62
7
6
CONTINUOUS
0
LAYER
2
SECTION
70
0
62
3
6
CONTINUOUS
0
LAYER
2
WET
70
0
62
4
6
CONTINUOUS
0
LAYER
2
DRY
70
0
62
6
6
CONTINUOUS
0
LAYER
2
MAGNET
70
0
62
1
6
CONTINUOUS
0
LAYER
2
LOCK
70
0
62
30
6
CONTINUOUS
0
LAYER
2
SEAL
70
0
62
1
6
CONTINUOUS
0
ENDTAB
0
ENDSEC
0
SECTION
2
ENTITIES
0
LINE
8
BORDER
10
0.000
20
0.000
30
0.0
11
420.000
21
0.000
31
0.0
0
LINE
8
BORDER
10
420.000
20
0.000
30
0.0
11
420.000
21
297.000
31
0.0
0
LINE
8
BORDER
10
420.000
20
297.000
30
0.0
11
0.000
21
297.000
31
0.0
0
LINE
8
BORDER
10
0.000
20
297.000
30
0.0
11
0.000
21
0.000
31
0.0
0
LINE
8
BORDER
10
10.000
20
10.000
30
0.0
11
410.000
21
10.000
31
0.0
0
LINE
8
BORDER
10
410.000
20
10.000
30
0.0
11
410.000
21
287.000
31
0.0
0
LINE
8
BORDER
10
410.000
20
287.000
30
0.0
11
10.000
21
287.000
31
0.0
0
LINE
8
BORDER
10
10.000
20
287.000
30
0.0
11
10.000
21
10.000
31
0.0
0
LINE
8
TITLE
10
235.000
20
10.000
30
0.0
11
410.000
21
10.000
31
0.0
0
LINE
8
TITLE
10
410.000
20
10.000
30
0.0
11
410.000
21
48.000
31
0.0
0
LINE
8
TITLE
10
410.000
20
48.000
30
0.0
11
235.000
21
48.000
31
0.0
0
LINE
8
TITLE
10
235.000
20
48.000
30
0.0
11
235.000
21
10.000
31
0.0
0
LINE
8
TITLE
10
235.000
20
29.000
30
0.0
11
410.000
21
29.000
31
0.0
0
LINE
8
TITLE
10
300.000
20
10.000
30
0.0
11
300.000
21
48.000
31
0.0
0
LINE
8
TITLE
10
350.000
20
10.000
30
0.0
11
350.000
21
48.000
31
0.0
0
TEXT
8
TITLE
10
240.000
20
37.000
30
0.0
40
4.000
1
AquaClick Engineering Communication
50
0.000
0
TEXT
8
TITLE
10
240.000
20
22.000
30
0.0
40
4.000
1
Dry Base Envelope
50
0.000
0
TEXT
8
TITLE
10
304.000
20
22.000
30
0.0
40
4.000
1
AQ-DXF-004
50
0.000
0
TEXT
8
TITLE
10
354.000
20
22.000
30
0.0
40
4.000
1
V0.2
50
0.000
0
TEXT
8
TITLE
10
240.000
20
14.000
30
0.0
40
3.000
1
Units: mm | Not for tooling | Validate by EVT/OEM
50
0.000
0
TEXT
8
TEXT
10
25.000
20
268.000
30
0.0
40
5.000
1
DRY BASE - COMPONENT ENVELOPE AND PROTECTED ZONES
50
0.000
0
LINE
8
DRY
10
55.000
20
75.000
30
0.0
11
355.000
21
75.000
31
0.0
0
LINE
8
DRY
10
355.000
20
75.000
30
0.0
11
355.000
21
215.000
31
0.0
0
LINE
8
DRY
10
355.000
20
215.000
30
0.0
11
55.000
21
215.000
31
0.0
0
LINE
8
DRY
10
55.000
20
215.000
30
0.0
11
55.000
21
75.000
31
0.0
0
CIRCLE
8
VISIBLE
10
132.000
20
155.000
30
0.0
40
25.000
0
LINE
8
VISIBLE
10
205.000
20
135.000
30
0.0
11
290.000
21
135.000
31
0.0
0
LINE
8
VISIBLE
10
290.000
20
135.000
30
0.0
11
290.000
21
175.000
31
0.0
0
LINE
8
VISIBLE
10
290.000
20
175.000
30
0.0
11
205.000
21
175.000
31
0.0
0
LINE
8
VISIBLE
10
205.000
20
175.000
30
0.0
11
205.000
21
135.000
31
0.0
0
LINE
8
LOCK
10
110.000
20
92.000
30
0.0
11
270.000
21
92.000
31
0.0
0
LINE
8
LOCK
10
270.000
20
92.000
30
0.0
11
270.000
21
110.000
31
0.0
0
LINE
8
LOCK
10
270.000
20
110.000
30
0.0
11
110.000
21
110.000
31
0.0
0
LINE
8
LOCK
10
110.000
20
110.000
30
0.0
11
110.000
21
92.000
31
0.0
0
LINE
8
WET
10
305.000
20
125.000
30
0.0
11
333.000
21
125.000
31
0.0
0
LINE
8
WET
10
333.000
20
125.000
30
0.0
11
333.000
21
190.000
31
0.0
0
LINE
8
WET
10
333.000
20
190.000
30
0.0
11
305.000
21
190.000
31
0.0
0
LINE
8
WET
10
305.000
20
190.000
30
0.0
11
305.000
21
125.000
31
0.0
0
LINE
8
SEAL
10
55.000
20
218.000
30
0.0
11
355.000
21
218.000
31
0.0
0
LINE
8
DIM
10
132.000
20
155.000
30
0.0
11
82.000
21
235.000
31
0.0
0
LINE
8
DIM
10
132.000
20
155.000
30
0.0
11
131.860
21
158.998
31
0.0
0
LINE
8
DIM
10
132.000
20
155.000
30
0.0
11
128.468
21
156.878
31
0.0
0
TEXT
8
TEXT
10
85.000
20
236.000
30
0.0
40
4.000
1
motor/gearbox
50
0.000
0
LINE
8
DIM
10
250.000
20
155.000
30
0.0
11
292.000
21
235.000
31
0.0
0
LINE
8
DIM
10
250.000
20
155.000
30
0.0
11
253.381
21
157.137
31
0.0
0
LINE
8
DIM
10
250.000
20
155.000
30
0.0
11
249.839
21
158.997
31
0.0
0
TEXT
8
TEXT
10
295.000
20
236.000
30
0.0
40
4.000
1
PCB/power
50
0.000
0
LINE
8
DIM
10
190.000
20
101.000
30
0.0
11
245.000
21
62.000
31
0.0
0
LINE
8
DIM
10
190.000
20
101.000
30
0.0
11
191.669
21
97.365
31
0.0
0
LINE
8
DIM
10
190.000
20
101.000
30
0.0
11
193.983
21
100.628
31
0.0
0
TEXT
8
TEXT
10
248.000
20
63.000
30
0.0
40
4.000
1
load-cell protected path
50
0.000
0
LINE
8
DIM
10
320.000
20
160.000
30
0.0
11
345.000
21
228.000
31
0.0
0
LINE
8
DIM
10
320.000
20
160.000
30
0.0
11
323.072
21
162.561
31
0.0
0
LINE
8
DIM
10
320.000
20
160.000
30
0.0
11
319.318
21
163.941
31
0.0
0
TEXT
8
TEXT
10
348.000
20
229.000
30
0.0
40
4.000
1
dry module contacts
50
0.000
0
LINE
8
DIM
10
55.000
20
235.000
30
0.0
11
355.000
21
235.000
31
0.0
0
LINE
8
DIM
10
55.000
20
235.000
30
0.0
11
51.536
21
237.000
31
0.0
0
LINE
8
DIM
10
55.000
20
235.000
30
0.0
11
51.536
21
233.000
31
0.0
0
LINE
8
DIM
10
355.000
20
235.000
30
0.0
11
358.464
21
233.000
31
0.0
0
LINE
8
DIM
10
355.000
20
235.000
30
0.0
11
358.464
21
237.000
31
0.0
0
TEXT
8
DIM
10
205.000
20
239.000
30
0.0
40
4.000
1
BASE FOOTPRINT TBD
50
0.000
72
1
11
205.000
21
239.000
31
0.0
0
TEXT
8
TEXT
10
25.000
20
45.000
30
0.0
40
3.500
1
Dry base is not washable. Design for dust exposure, splash boundary and assembly-present lockout.
50
0.000
0
ENDSEC
0
EOF
