0
SECTION
2
HEADER
9
$ACADVER
1
AC1009
0
ENDSEC
0
SECTION
2
TABLES
0
TABLE
2
LAYER
70
12
0
LAYER
2
BORDER
70
0
62
7
6
CONTINUOUS
0
LAYER
2
TITLE
70
0
62
7
6
CONTINUOUS
0
LAYER
2
VISIBLE
70
0
62
7
6
CONTINUOUS
0
LAYER
2
HIDDEN
70
0
62
8
6
CONTINUOUS
0
LAYER
2
CENTER
70
0
62
5
6
CONTINUOUS
0
LAYER
2
DIM
70
0
62
2
6
CONTINUOUS
0
LAYER
2
TEXT
70
0
62
7
6
CONTINUOUS
0
LAYER
2
SECTION
70
0
62
3
6
CONTINUOUS
0
LAYER
2
WET
70
0
62
4
6
CONTINUOUS
0
LAYER
2
DRY
70
0
62
6
6
CONTINUOUS
0
LAYER
2
MAGNET
70
0
62
1
6
CONTINUOUS
0
LAYER
2
LOCK
70
0
62
30
6
CONTINUOUS
0
LAYER
2
SEAL
70
0
62
1
6
CONTINUOUS
0
ENDTAB
0
ENDSEC
0
SECTION
2
ENTITIES
0
LINE
8
BORDER
10
0.000
20
0.000
30
0.0
11
420.000
21
0.000
31
0.0
0
LINE
8
BORDER
10
420.000
20
0.000
30
0.0
11
420.000
21
297.000
31
0.0
0
LINE
8
BORDER
10
420.000
20
297.000
30
0.0
11
0.000
21
297.000
31
0.0
0
LINE
8
BORDER
10
0.000
20
297.000
30
0.0
11
0.000
21
0.000
31
0.0
0
LINE
8
BORDER
10
10.000
20
10.000
30
0.0
11
410.000
21
10.000
31
0.0
0
LINE
8
BORDER
10
410.000
20
10.000
30
0.0
11
410.000
21
287.000
31
0.0
0
LINE
8
BORDER
10
410.000
20
287.000
30
0.0
11
10.000
21
287.000
31
0.0
0
LINE
8
BORDER
10
10.000
20
287.000
30
0.0
11
10.000
21
10.000
31
0.0
0
LINE
8
TITLE
10
235.000
20
10.000
30
0.0
11
410.000
21
10.000
31
0.0
0
LINE
8
TITLE
10
410.000
20
10.000
30
0.0
11
410.000
21
48.000
31
0.0
0
LINE
8
TITLE
10
410.000
20
48.000
30
0.0
11
235.000
21
48.000
31
0.0
0
LINE
8
TITLE
10
235.000
20
48.000
30
0.0
11
235.000
21
10.000
31
0.0
0
LINE
8
TITLE
10
235.000
20
29.000
30
0.0
11
410.000
21
29.000
31
0.0
0
LINE
8
TITLE
10
300.000
20
10.000
30
0.0
11
300.000
21
48.000
31
0.0
0
LINE
8
TITLE
10
350.000
20
10.000
30
0.0
11
350.000
21
48.000
31
0.0
0
TEXT
8
TITLE
10
240.000
20
37.000
30
0.0
40
4.000
1
AquaClick Engineering Communication
50
0.000
0
TEXT
8
TITLE
10
240.000
20
22.000
30
0.0
40
4.000
1
Click Interface Detail
50
0.000
0
TEXT
8
TITLE
10
304.000
20
22.000
30
0.0
40
4.000
1
AQ-DXF-003
50
0.000
0
TEXT
8
TITLE
10
354.000
20
22.000
30
0.0
40
4.000
1
V0.2
50
0.000
0
TEXT
8
TITLE
10
240.000
20
14.000
30
0.0
40
3.000
1
Units: mm | Not for tooling | Validate by EVT/OEM
50
0.000
0
TEXT
8
TEXT
10
25.000
20
268.000
30
0.0
40
5.000
1
MAGNETIC ALIGNMENT + MECHANICAL LOCK + SEAL BOUNDARY
50
0.000
0
LINE
8
WET
10
70.000
20
108.000
30
0.0
11
190.000
21
108.000
31
0.0
0
LINE
8
WET
10
190.000
20
108.000
30
0.0
11
190.000
21
213.000
31
0.0
0
LINE
8
WET
10
190.000
20
213.000
30
0.0
11
70.000
21
213.000
31
0.0
0
LINE
8
WET
10
70.000
20
213.000
30
0.0
11
70.000
21
108.000
31
0.0
0
LINE
8
DRY
10
230.000
20
108.000
30
0.0
11
350.000
21
108.000
31
0.0
0
LINE
8
DRY
10
350.000
20
108.000
30
0.0
11
350.000
21
213.000
31
0.0
0
LINE
8
DRY
10
350.000
20
213.000
30
0.0
11
230.000
21
213.000
31
0.0
0
LINE
8
DRY
10
230.000
20
213.000
30
0.0
11
230.000
21
108.000
31
0.0
0
CIRCLE
8
MAGNET
10
185.000
20
180.000
30
0.0
40
8.000
0
CIRCLE
8
MAGNET
10
235.000
20
180.000
30
0.0
40
8.000
0
LINE
8
LOCK
10
184.000
20
132.000
30
0.0
11
213.000
21
132.000
31
0.0
0
LINE
8
LOCK
10
213.000
20
132.000
30
0.0
11
224.000
21
116.000
31
0.0
0
LINE
8
LOCK
10
224.000
20
116.000
30
0.0
11
195.000
21
116.000
31
0.0
0
LINE
8
LOCK
10
195.000
20
116.000
30
0.0
11
184.000
21
132.000
31
0.0
0
LINE
8
LOCK
10
236.000
20
132.000
30
0.0
11
265.000
21
132.000
31
0.0
0
LINE
8
LOCK
10
265.000
20
132.000
30
0.0
11
254.000
21
116.000
31
0.0
0
LINE
8
LOCK
10
254.000
20
116.000
30
0.0
11
225.000
21
116.000
31
0.0
0
LINE
8
LOCK
10
225.000
20
116.000
30
0.0
11
236.000
21
132.000
31
0.0
0
LINE
8
SEAL
10
190.000
20
86.000
30
0.0
11
260.000
21
86.000
31
0.0
0
LINE
8
SEAL
10
260.000
20
86.000
30
0.0
11
260.000
21
97.000
31
0.0
0
LINE
8
SEAL
10
260.000
20
97.000
30
0.0
11
190.000
21
97.000
31
0.0
0
LINE
8
SEAL
10
190.000
20
97.000
30
0.0
11
190.000
21
86.000
31
0.0
0
LINE
8
CENTER
10
210.000
20
92.000
30
0.0
11
210.000
21
230.000
31
0.0
0
LINE
8
DIM
10
185.000
20
180.000
30
0.0
11
105.000
21
235.000
31
0.0
0
LINE
8
DIM
10
185.000
20
180.000
30
0.0
11
183.278
21
183.611
31
0.0
0
LINE
8
DIM
10
185.000
20
180.000
30
0.0
11
181.012
21
180.314
31
0.0
0
TEXT
8
TEXT
10
108.000
20
236.000
30
0.0
40
4.000
1
magnet locates only
50
0.000
0
LINE
8
DIM
10
224.000
20
124.000
30
0.0
11
266.000
21
215.000
31
0.0
0
LINE
8
DIM
10
224.000
20
124.000
30
0.0
11
227.268
21
126.307
31
0.0
0
LINE
8
DIM
10
224.000
20
124.000
30
0.0
11
223.636
21
127.983
31
0.0
0
TEXT
8
TEXT
10
269.000
20
216.000
30
0.0
40
4.000
1
mechanical latch retains
50
0.000
0
LINE
8
DIM
10
225.000
20
91.000
30
0.0
11
278.000
21
72.000
31
0.0
0
LINE
8
DIM
10
225.000
20
91.000
30
0.0
11
227.586
21
87.948
31
0.0
0
LINE
8
DIM
10
225.000
20
91.000
30
0.0
11
228.936
21
91.714
31
0.0
0
TEXT
8
TEXT
10
281.000
20
73.000
30
0.0
40
4.000
1
gasket/labyrinth
50
0.000
0
LINE
8
DIM
10
70.000
20
238.000
30
0.0
11
350.000
21
238.000
31
0.0
0
LINE
8
DIM
10
70.000
20
238.000
30
0.0
11
66.536
21
240.000
31
0.0
0
LINE
8
DIM
10
70.000
20
238.000
30
0.0
11
66.536
21
236.000
31
0.0
0
LINE
8
DIM
10
350.000
20
238.000
30
0.0
11
353.464
21
236.000
31
0.0
0
LINE
8
DIM
10
350.000
20
238.000
30
0.0
11
353.464
21
240.000
31
0.0
0
TEXT
8
DIM
10
210.000
20
242.000
30
0.0
40
4.000
1
INTERFACE WIDTH TBD BY TEARDOWN
50
0.000
72
1
11
210.000
21
242.000
31
0.0
0
TEXT
8
TEXT
10
25.000
20
55.000
30
0.0
40
3.500
1
DESIGN INTENT: magnets must not be the safety lock. Lock retention and release force require bench test.
50
0.000
0
ENDSEC
0
EOF
