0
SECTION
2
HEADER
9
$ACADVER
1
AC1009
0
ENDSEC
0
SECTION
2
TABLES
0
TABLE
2
LAYER
70
12
0
LAYER
2
BORDER
70
0
62
7
6
CONTINUOUS
0
LAYER
2
TITLE
70
0
62
7
6
CONTINUOUS
0
LAYER
2
VISIBLE
70
0
62
7
6
CONTINUOUS
0
LAYER
2
HIDDEN
70
0
62
8
6
CONTINUOUS
0
LAYER
2
CENTER
70
0
62
5
6
CONTINUOUS
0
LAYER
2
DIM
70
0
62
2
6
CONTINUOUS
0
LAYER
2
TEXT
70
0
62
7
6
CONTINUOUS
0
LAYER
2
SECTION
70
0
62
3
6
CONTINUOUS
0
LAYER
2
WET
70
0
62
4
6
CONTINUOUS
0
LAYER
2
DRY
70
0
62
6
6
CONTINUOUS
0
LAYER
2
MAGNET
70
0
62
1
6
CONTINUOUS
0
LAYER
2
LOCK
70
0
62
30
6
CONTINUOUS
0
LAYER
2
SEAL
70
0
62
1
6
CONTINUOUS
0
ENDTAB
0
ENDSEC
0
SECTION
2
ENTITIES
0
LINE
8
BORDER
10
0.000
20
0.000
30
0.0
11
420.000
21
0.000
31
0.0
0
LINE
8
BORDER
10
420.000
20
0.000
30
0.0
11
420.000
21
297.000
31
0.0
0
LINE
8
BORDER
10
420.000
20
297.000
30
0.0
11
0.000
21
297.000
31
0.0
0
LINE
8
BORDER
10
0.000
20
297.000
30
0.0
11
0.000
21
0.000
31
0.0
0
LINE
8
BORDER
10
10.000
20
10.000
30
0.0
11
410.000
21
10.000
31
0.0
0
LINE
8
BORDER
10
410.000
20
10.000
30
0.0
11
410.000
21
287.000
31
0.0
0
LINE
8
BORDER
10
410.000
20
287.000
30
0.0
11
10.000
21
287.000
31
0.0
0
LINE
8
BORDER
10
10.000
20
287.000
30
0.0
11
10.000
21
10.000
31
0.0
0
LINE
8
TITLE
10
235.000
20
10.000
30
0.0
11
410.000
21
10.000
31
0.0
0
LINE
8
TITLE
10
410.000
20
10.000
30
0.0
11
410.000
21
48.000
31
0.0
0
LINE
8
TITLE
10
410.000
20
48.000
30
0.0
11
235.000
21
48.000
31
0.0
0
LINE
8
TITLE
10
235.000
20
48.000
30
0.0
11
235.000
21
10.000
31
0.0
0
LINE
8
TITLE
10
235.000
20
29.000
30
0.0
11
410.000
21
29.000
31
0.0
0
LINE
8
TITLE
10
300.000
20
10.000
30
0.0
11
300.000
21
48.000
31
0.0
0
LINE
8
TITLE
10
350.000
20
10.000
30
0.0
11
350.000
21
48.000
31
0.0
0
TEXT
8
TITLE
10
240.000
20
37.000
30
0.0
40
4.000
1
AquaClick Engineering Communication
50
0.000
0
TEXT
8
TITLE
10
240.000
20
22.000
30
0.0
40
4.000
1
Dual Prototype Plan
50
0.000
0
TEXT
8
TITLE
10
304.000
20
22.000
30
0.0
40
4.000
1
AQ-DXF-005
50
0.000
0
TEXT
8
TITLE
10
354.000
20
22.000
30
0.0
40
4.000
1
V0.2
50
0.000
0
TEXT
8
TITLE
10
240.000
20
14.000
30
0.0
40
3.000
1
Units: mm | Not for tooling | Validate by EVT/OEM
50
0.000
0
TEXT
8
TEXT
10
25.000
20
268.000
30
0.0
40
5.000
1
SPLIT PROTOTYPES BEFORE INTEGRATED EVT
50
0.000
0
LINE
8
WET
10
45.000
20
105.000
30
0.0
11
190.000
21
105.000
31
0.0
0
LINE
8
WET
10
190.000
20
105.000
30
0.0
11
190.000
21
220.000
31
0.0
0
LINE
8
WET
10
190.000
20
220.000
30
0.0
11
45.000
21
220.000
31
0.0
0
LINE
8
WET
10
45.000
20
220.000
30
0.0
11
45.000
21
105.000
31
0.0
0
LINE
8
DRY
10
230.000
20
105.000
30
0.0
11
375.000
21
105.000
31
0.0
0
LINE
8
DRY
10
375.000
20
105.000
30
0.0
11
375.000
21
220.000
31
0.0
0
LINE
8
DRY
10
375.000
20
220.000
30
0.0
11
230.000
21
220.000
31
0.0
0
LINE
8
DRY
10
230.000
20
220.000
30
0.0
11
230.000
21
105.000
31
0.0
0
TEXT
8
TEXT
10
60.000
20
198.000
30
0.0
40
5.000
1
PROTOTYPE A
50
0.000
0
TEXT
8
TEXT
10
60.000
20
185.000
30
0.0
40
4.000
1
Engineering feeder mule
50
0.000
0
TEXT
8
TEXT
10
60.000
20
165.000
30
0.0
40
3.500
1
1 mature feed mechanism
50
0.000
0
TEXT
8
TEXT
10
60.000
20
152.000
30
0.0
40
3.500
1
2 washable wet assembly
50
0.000
0
TEXT
8
TEXT
10
60.000
20
139.000
30
0.0
40
3.500
1
3 real food tests
50
0.000
0
TEXT
8
TEXT
10
245.000
20
198.000
30
0.0
40
5.000
1
PROTOTYPE B
50
0.000
0
TEXT
8
TEXT
10
245.000
20
185.000
30
0.0
40
4.000
1
Click experience model
50
0.000
0
TEXT
8
TEXT
10
245.000
20
165.000
30
0.0
40
3.500
1
1 magnet alignment feel
50
0.000
0
TEXT
8
TEXT
10
245.000
20
152.000
30
0.0
40
3.500
1
2 latch click / release
50
0.000
0
TEXT
8
TEXT
10
245.000
20
139.000
30
0.0
40
3.500
1
3 module demo story
50
0.000
0
LINE
8
DIM
10
190.000
20
162.000
30
0.0
11
230.000
21
162.000
31
0.0
0
LINE
8
DIM
10
230.000
20
162.000
30
0.0
11
233.464
21
160.000
31
0.0
0
LINE
8
DIM
10
230.000
20
162.000
30
0.0
11
233.464
21
164.000
31
0.0
0
TEXT
8
TEXT
10
148.000
20
75.000
30
0.0
40
4.500
1
INTEGRATE ONLY AFTER BOTH GATES PASS
50
0.000
0
ENDSEC
0
EOF
