0
SECTION
2
HEADER
9
$ACADVER
1
AC1009
0
ENDSEC
0
SECTION
2
TABLES
0
TABLE
2
LAYER
70
12
0
LAYER
2
BORDER
70
0
62
7
6
CONTINUOUS
0
LAYER
2
TITLE
70
0
62
7
6
CONTINUOUS
0
LAYER
2
VISIBLE
70
0
62
7
6
CONTINUOUS
0
LAYER
2
HIDDEN
70
0
62
8
6
CONTINUOUS
0
LAYER
2
CENTER
70
0
62
5
6
CONTINUOUS
0
LAYER
2
DIM
70
0
62
2
6
CONTINUOUS
0
LAYER
2
TEXT
70
0
62
7
6
CONTINUOUS
0
LAYER
2
SECTION
70
0
62
3
6
CONTINUOUS
0
LAYER
2
WET
70
0
62
4
6
CONTINUOUS
0
LAYER
2
DRY
70
0
62
6
6
CONTINUOUS
0
LAYER
2
MAGNET
70
0
62
1
6
CONTINUOUS
0
LAYER
2
LOCK
70
0
62
30
6
CONTINUOUS
0
LAYER
2
SEAL
70
0
62
1
6
CONTINUOUS
0
ENDTAB
0
ENDSEC
0
SECTION
2
ENTITIES
0
LINE
8
BORDER
10
0.000
20
0.000
30
0.0
11
420.000
21
0.000
31
0.0
0
LINE
8
BORDER
10
420.000
20
0.000
30
0.0
11
420.000
21
297.000
31
0.0
0
LINE
8
BORDER
10
420.000
20
297.000
30
0.0
11
0.000
21
297.000
31
0.0
0
LINE
8
BORDER
10
0.000
20
297.000
30
0.0
11
0.000
21
0.000
31
0.0
0
LINE
8
BORDER
10
10.000
20
10.000
30
0.0
11
410.000
21
10.000
31
0.0
0
LINE
8
BORDER
10
410.000
20
10.000
30
0.0
11
410.000
21
287.000
31
0.0
0
LINE
8
BORDER
10
410.000
20
287.000
30
0.0
11
10.000
21
287.000
31
0.0
0
LINE
8
BORDER
10
10.000
20
287.000
30
0.0
11
10.000
21
10.000
31
0.0
0
LINE
8
TITLE
10
235.000
20
10.000
30
0.0
11
410.000
21
10.000
31
0.0
0
LINE
8
TITLE
10
410.000
20
10.000
30
0.0
11
410.000
21
48.000
31
0.0
0
LINE
8
TITLE
10
410.000
20
48.000
30
0.0
11
235.000
21
48.000
31
0.0
0
LINE
8
TITLE
10
235.000
20
48.000
30
0.0
11
235.000
21
10.000
31
0.0
0
LINE
8
TITLE
10
235.000
20
29.000
30
0.0
11
410.000
21
29.000
31
0.0
0
LINE
8
TITLE
10
300.000
20
10.000
30
0.0
11
300.000
21
48.000
31
0.0
0
LINE
8
TITLE
10
350.000
20
10.000
30
0.0
11
350.000
21
48.000
31
0.0
0
TEXT
8
TITLE
10
240.000
20
37.000
30
0.0
40
4.000
1
AquaClick Engineering Communication
50
0.000
0
TEXT
8
TITLE
10
240.000
20
22.000
30
0.0
40
4.000
1
GA Wet/Dry Section
50
0.000
0
TEXT
8
TITLE
10
304.000
20
22.000
30
0.0
40
4.000
1
AQ-DXF-001
50
0.000
0
TEXT
8
TITLE
10
354.000
20
22.000
30
0.0
40
4.000
1
V0.2
50
0.000
0
TEXT
8
TITLE
10
240.000
20
14.000
30
0.0
40
3.000
1
Units: mm | Not for tooling | Validate by EVT/OEM
50
0.000
0
TEXT
8
TEXT
10
25.000
20
268.000
30
0.0
40
5.000
1
A-A SECTION: WASHABLE FOOD ASSEMBLY ABOVE DRY BASE
50
0.000
0
LINE
8
WET
10
90.000
20
240.000
30
0.0
11
230.000
21
240.000
31
0.0
0
LINE
8
WET
10
230.000
20
240.000
30
0.0
11
215.000
21
135.000
31
0.0
0
LINE
8
WET
10
215.000
20
135.000
30
0.0
11
160.000
21
82.000
31
0.0
0
LINE
8
WET
10
160.000
20
82.000
30
0.0
11
105.000
21
135.000
31
0.0
0
LINE
8
WET
10
105.000
20
135.000
30
0.0
11
90.000
21
240.000
31
0.0
0
LINE
8
CENTER
10
112.000
20
135.000
30
0.0
11
170.000
21
100.000
31
0.0
0
LINE
8
CENTER
10
170.000
20
100.000
30
0.0
11
207.000
21
135.000
31
0.0
0
CIRCLE
8
VISIBLE
10
205.000
20
126.000
30
0.0
40
17.000
0
LINE
8
DRY
10
125.000
20
58.000
30
0.0
11
290.000
21
58.000
31
0.0
0
LINE
8
DRY
10
290.000
20
58.000
30
0.0
11
290.000
21
88.000
31
0.0
0
LINE
8
DRY
10
290.000
20
88.000
30
0.0
11
125.000
21
88.000
31
0.0
0
LINE
8
DRY
10
125.000
20
88.000
30
0.0
11
125.000
21
58.000
31
0.0
0
LINE
8
DRY
10
285.000
20
145.000
30
0.0
11
355.000
21
145.000
31
0.0
0
LINE
8
DRY
10
355.000
20
145.000
30
0.0
11
355.000
21
200.000
31
0.0
0
LINE
8
DRY
10
355.000
20
200.000
30
0.0
11
285.000
21
200.000
31
0.0
0
LINE
8
DRY
10
285.000
20
200.000
30
0.0
11
285.000
21
145.000
31
0.0
0
LINE
8
WET
10
265.000
20
85.000
30
0.0
11
345.000
21
85.000
31
0.0
0
LINE
8
WET
10
345.000
20
85.000
30
0.0
11
345.000
21
115.000
31
0.0
0
LINE
8
WET
10
345.000
20
115.000
30
0.0
11
265.000
21
115.000
31
0.0
0
LINE
8
WET
10
265.000
20
115.000
30
0.0
11
265.000
21
85.000
31
0.0
0
LINE
8
SEAL
10
65.000
20
90.000
30
0.0
11
365.000
21
90.000
31
0.0
0
TEXT
8
SEAL
10
268.000
20
92.000
30
0.0
40
4.000
1
WASH BOUNDARY
50
0.000
0
LINE
8
SECTION
10
90.000
20
252.000
30
0.0
11
90.000
21
252.000
31
0.0
0
LINE
8
SECTION
10
90.000
20
246.000
30
0.0
11
96.000
21
252.000
31
0.0
0
LINE
8
SECTION
10
90.000
20
240.000
30
0.0
11
102.000
21
252.000
31
0.0
0
LINE
8
SECTION
10
96.000
20
240.000
30
0.0
11
108.000
21
252.000
31
0.0
0
LINE
8
SECTION
10
102.000
20
240.000
30
0.0
11
114.000
21
252.000
31
0.0
0
LINE
8
SECTION
10
108.000
20
240.000
30
0.0
11
120.000
21
252.000
31
0.0
0
LINE
8
SECTION
10
114.000
20
240.000
30
0.0
11
126.000
21
252.000
31
0.0
0
LINE
8
SECTION
10
120.000
20
240.000
30
0.0
11
132.000
21
252.000
31
0.0
0
LINE
8
SECTION
10
126.000
20
240.000
30
0.0
11
138.000
21
252.000
31
0.0
0
LINE
8
SECTION
10
132.000
20
240.000
30
0.0
11
144.000
21
252.000
31
0.0
0
LINE
8
SECTION
10
138.000
20
240.000
30
0.0
11
150.000
21
252.000
31
0.0
0
LINE
8
SECTION
10
144.000
20
240.000
30
0.0
11
156.000
21
252.000
31
0.0
0
LINE
8
SECTION
10
150.000
20
240.000
30
0.0
11
162.000
21
252.000
31
0.0
0
LINE
8
SECTION
10
156.000
20
240.000
30
0.0
11
168.000
21
252.000
31
0.0
0
LINE
8
SECTION
10
162.000
20
240.000
30
0.0
11
174.000
21
252.000
31
0.0
0
LINE
8
SECTION
10
168.000
20
240.000
30
0.0
11
180.000
21
252.000
31
0.0
0
LINE
8
SECTION
10
174.000
20
240.000
30
0.0
11
186.000
21
252.000
31
0.0
0
LINE
8
SECTION
10
180.000
20
240.000
30
0.0
11
192.000
21
252.000
31
0.0
0
LINE
8
SECTION
10
186.000
20
240.000
30
0.0
11
198.000
21
252.000
31
0.0
0
LINE
8
SECTION
10
192.000
20
240.000
30
0.0
11
204.000
21
252.000
31
0.0
0
LINE
8
SECTION
10
198.000
20
240.000
30
0.0
11
210.000
21
252.000
31
0.0
0
LINE
8
SECTION
10
204.000
20
240.000
30
0.0
11
216.000
21
252.000
31
0.0
0
LINE
8
SECTION
10
210.000
20
240.000
30
0.0
11
222.000
21
252.000
31
0.0
0
LINE
8
SECTION
10
216.000
20
240.000
30
0.0
11
228.000
21
252.000
31
0.0
0
LINE
8
SECTION
10
222.000
20
240.000
30
0.0
11
230.000
21
248.000
31
0.0
0
LINE
8
SECTION
10
228.000
20
240.000
30
0.0
11
230.000
21
242.000
31
0.0
0
LINE
8
DIM
10
90.000
20
255.000
30
0.0
11
230.000
21
255.000
31
0.0
0
LINE
8
DIM
10
90.000
20
255.000
30
0.0
11
86.536
21
257.000
31
0.0
0
LINE
8
DIM
10
90.000
20
255.000
30
0.0
11
86.536
21
253.000
31
0.0
0
LINE
8
DIM
10
230.000
20
255.000
30
0.0
11
233.464
21
253.000
31
0.0
0
LINE
8
DIM
10
230.000
20
255.000
30
0.0
11
233.464
21
257.000
31
0.0
0
TEXT
8
DIM
10
160.000
20
259.000
30
0.0
40
4.000
1
HOPPER OD 180/185
50
0.000
72
1
11
160.000
21
259.000
31
0.0
0
LINE
8
DIM
10
372.000
20
58.000
30
0.0
11
372.000
21
240.000
31
0.0
0
LINE
8
DIM
10
372.000
20
58.000
30
0.0
11
370.000
21
54.536
31
0.0
0
LINE
8
DIM
10
372.000
20
58.000
30
0.0
11
374.000
21
54.536
31
0.0
0
LINE
8
DIM
10
372.000
20
240.000
30
0.0
11
374.000
21
243.464
31
0.0
0
LINE
8
DIM
10
372.000
20
240.000
30
0.0
11
370.000
21
243.464
31
0.0
0
TEXT
8
DIM
10
376.000
20
149.000
30
0.0
40
4.000
1
TARGET HEIGHT <=305
50
90.000
0
LINE
8
DIM
10
205.000
20
126.000
30
0.0
11
255.000
21
145.000
31
0.0
0
LINE
8
DIM
10
205.000
20
126.000
30
0.0
11
208.949
21
125.361
31
0.0
0
LINE
8
DIM
10
205.000
20
126.000
30
0.0
11
207.528
21
129.100
31
0.0
0
TEXT
8
TEXT
10
258.000
20
146.000
30
0.0
40
4.000
1
removable rotor in wet zone
50
0.000
0
LINE
8
DIM
10
180.000
20
70.000
30
0.0
11
290.000
21
55.000
31
0.0
0
LINE
8
DIM
10
180.000
20
70.000
30
0.0
11
183.162
21
67.550
31
0.0
0
LINE
8
DIM
10
180.000
20
70.000
30
0.0
11
183.703
21
71.514
31
0.0
0
TEXT
8
TEXT
10
293.000
20
56.000
30
0.0
40
4.000
1
motor/PCB remain dry
50
0.000
0
LINE
8
DIM
10
285.000
20
172.000
30
0.0
11
358.000
21
218.000
31
0.0
0
LINE
8
DIM
10
285.000
20
172.000
30
0.0
11
288.997
21
172.155
31
0.0
0
LINE
8
DIM
10
285.000
20
172.000
30
0.0
11
286.865
21
175.539
31
0.0
0
TEXT
8
TEXT
10
361.000
20
219.000
30
0.0
40
4.000
1
dry smart module bay
50
0.000
0
TEXT
8
TEXT
10
25.000
20
35.000
30
0.0
40
3.500
1
KEY RULE: food-contact assembly is passive. No PCB, motor, battery, permanent wiring or camera in wet zone.
50
0.000
0
ENDSEC
0
EOF
