0
SECTION
2
HEADER
9
$ACADVER
1
AC1009
0
ENDSEC
0
SECTION
2
TABLES
0
TABLE
2
LAYER
70
12
0
LAYER
2
BORDER
70
0
62
7
6
CONTINUOUS
0
LAYER
2
TITLE
70
0
62
7
6
CONTINUOUS
0
LAYER
2
VISIBLE
70
0
62
7
6
CONTINUOUS
0
LAYER
2
HIDDEN
70
0
62
8
6
CONTINUOUS
0
LAYER
2
CENTER
70
0
62
5
6
CONTINUOUS
0
LAYER
2
DIM
70
0
62
2
6
CONTINUOUS
0
LAYER
2
TEXT
70
0
62
7
6
CONTINUOUS
0
LAYER
2
SECTION
70
0
62
3
6
CONTINUOUS
0
LAYER
2
WET
70
0
62
4
6
CONTINUOUS
0
LAYER
2
DRY
70
0
62
6
6
CONTINUOUS
0
LAYER
2
MAGNET
70
0
62
1
6
CONTINUOUS
0
LAYER
2
LOCK
70
0
62
30
6
CONTINUOUS
0
LAYER
2
SEAL
70
0
62
1
6
CONTINUOUS
0
ENDTAB
0
ENDSEC
0
SECTION
2
ENTITIES
0
LINE
8
BORDER
10
0.000
20
0.000
30
0.0
11
420.000
21
0.000
31
0.0
0
LINE
8
BORDER
10
420.000
20
0.000
30
0.0
11
420.000
21
297.000
31
0.0
0
LINE
8
BORDER
10
420.000
20
297.000
30
0.0
11
0.000
21
297.000
31
0.0
0
LINE
8
BORDER
10
0.000
20
297.000
30
0.0
11
0.000
21
0.000
31
0.0
0
LINE
8
BORDER
10
10.000
20
10.000
30
0.0
11
410.000
21
10.000
31
0.0
0
LINE
8
BORDER
10
410.000
20
10.000
30
0.0
11
410.000
21
287.000
31
0.0
0
LINE
8
BORDER
10
410.000
20
287.000
30
0.0
11
10.000
21
287.000
31
0.0
0
LINE
8
BORDER
10
10.000
20
287.000
30
0.0
11
10.000
21
10.000
31
0.0
0
LINE
8
TITLE
10
235.000
20
10.000
30
0.0
11
410.000
21
10.000
31
0.0
0
LINE
8
TITLE
10
410.000
20
10.000
30
0.0
11
410.000
21
48.000
31
0.0
0
LINE
8
TITLE
10
410.000
20
48.000
30
0.0
11
235.000
21
48.000
31
0.0
0
LINE
8
TITLE
10
235.000
20
48.000
30
0.0
11
235.000
21
10.000
31
0.0
0
LINE
8
TITLE
10
235.000
20
29.000
30
0.0
11
410.000
21
29.000
31
0.0
0
LINE
8
TITLE
10
300.000
20
10.000
30
0.0
11
300.000
21
48.000
31
0.0
0
LINE
8
TITLE
10
350.000
20
10.000
30
0.0
11
350.000
21
48.000
31
0.0
0
TEXT
8
TITLE
10
240.000
20
37.000
30
0.0
40
4.000
1
AquaClick Engineering Communication
50
0.000
0
TEXT
8
TITLE
10
240.000
20
22.000
30
0.0
40
4.000
1
Washable Food Path Detail
50
0.000
0
TEXT
8
TITLE
10
304.000
20
22.000
30
0.0
40
4.000
1
AQ-DXF-002
50
0.000
0
TEXT
8
TITLE
10
354.000
20
22.000
30
0.0
40
4.000
1
V0.2
50
0.000
0
TEXT
8
TITLE
10
240.000
20
14.000
30
0.0
40
3.000
1
Units: mm | Not for tooling | Validate by EVT/OEM
50
0.000
0
TEXT
8
TEXT
10
25.000
20
268.000
30
0.0
40
5.000
1
REMOVABLE FOOD-CONTACT PATH - DETAIL B
50
0.000
0
LINE
8
WET
10
65.000
20
230.000
30
0.0
11
220.000
21
230.000
31
0.0
0
LINE
8
WET
10
220.000
20
230.000
30
0.0
11
210.000
21
135.000
31
0.0
0
LINE
8
WET
10
210.000
20
135.000
30
0.0
11
165.000
21
98.000
31
0.0
0
LINE
8
WET
10
165.000
20
98.000
30
0.0
11
80.000
21
132.000
31
0.0
0
LINE
8
WET
10
80.000
20
132.000
30
0.0
11
65.000
21
230.000
31
0.0
0
CIRCLE
8
VISIBLE
10
212.000
20
128.000
30
0.0
40
22.000
0
LINE
8
VISIBLE
10
230.000
20
112.000
30
0.0
11
335.000
21
112.000
31
0.0
0
LINE
8
VISIBLE
10
335.000
20
112.000
30
0.0
11
335.000
21
136.000
31
0.0
0
LINE
8
VISIBLE
10
335.000
20
136.000
30
0.0
11
230.000
21
136.000
31
0.0
0
LINE
8
VISIBLE
10
230.000
20
136.000
30
0.0
11
230.000
21
112.000
31
0.0
0
LINE
8
CENTER
10
243.000
20
119.000
30
0.0
11
321.000
21
119.000
31
0.0
0
LINE
8
CENTER
10
321.000
20
119.000
30
0.0
11
321.000
21
129.000
31
0.0
0
LINE
8
CENTER
10
321.000
20
129.000
30
0.0
11
243.000
21
129.000
31
0.0
0
LINE
8
CENTER
10
243.000
20
129.000
30
0.0
11
243.000
21
119.000
31
0.0
0
LINE
8
WET
10
302.000
20
75.000
30
0.0
11
367.000
21
75.000
31
0.0
0
LINE
8
WET
10
367.000
20
75.000
30
0.0
11
367.000
21
107.000
31
0.0
0
LINE
8
WET
10
367.000
20
107.000
30
0.0
11
302.000
21
107.000
31
0.0
0
LINE
8
WET
10
302.000
20
107.000
30
0.0
11
302.000
21
75.000
31
0.0
0
LINE
8
SECTION
10
230.000
20
136.000
30
0.0
11
230.000
21
136.000
31
0.0
0
LINE
8
SECTION
10
230.000
20
130.000
30
0.0
11
236.000
21
136.000
31
0.0
0
LINE
8
SECTION
10
230.000
20
124.000
30
0.0
11
242.000
21
136.000
31
0.0
0
LINE
8
SECTION
10
230.000
20
118.000
30
0.0
11
248.000
21
136.000
31
0.0
0
LINE
8
SECTION
10
230.000
20
112.000
30
0.0
11
254.000
21
136.000
31
0.0
0
LINE
8
SECTION
10
236.000
20
112.000
30
0.0
11
260.000
21
136.000
31
0.0
0
LINE
8
SECTION
10
242.000
20
112.000
30
0.0
11
266.000
21
136.000
31
0.0
0
LINE
8
SECTION
10
248.000
20
112.000
30
0.0
11
272.000
21
136.000
31
0.0
0
LINE
8
SECTION
10
254.000
20
112.000
30
0.0
11
278.000
21
136.000
31
0.0
0
LINE
8
SECTION
10
260.000
20
112.000
30
0.0
11
284.000
21
136.000
31
0.0
0
LINE
8
SECTION
10
266.000
20
112.000
30
0.0
11
290.000
21
136.000
31
0.0
0
LINE
8
SECTION
10
272.000
20
112.000
30
0.0
11
296.000
21
136.000
31
0.0
0
LINE
8
SECTION
10
278.000
20
112.000
30
0.0
11
302.000
21
136.000
31
0.0
0
LINE
8
SECTION
10
284.000
20
112.000
30
0.0
11
308.000
21
136.000
31
0.0
0
LINE
8
SECTION
10
290.000
20
112.000
30
0.0
11
314.000
21
136.000
31
0.0
0
LINE
8
SECTION
10
296.000
20
112.000
30
0.0
11
320.000
21
136.000
31
0.0
0
LINE
8
SECTION
10
302.000
20
112.000
30
0.0
11
326.000
21
136.000
31
0.0
0
LINE
8
SECTION
10
308.000
20
112.000
30
0.0
11
332.000
21
136.000
31
0.0
0
LINE
8
SECTION
10
314.000
20
112.000
30
0.0
11
335.000
21
133.000
31
0.0
0
LINE
8
SECTION
10
320.000
20
112.000
30
0.0
11
335.000
21
127.000
31
0.0
0
LINE
8
SECTION
10
326.000
20
112.000
30
0.0
11
335.000
21
121.000
31
0.0
0
LINE
8
SECTION
10
332.000
20
112.000
30
0.0
11
335.000
21
115.000
31
0.0
0
LINE
8
DIM
10
230.000
20
150.000
30
0.0
11
335.000
21
150.000
31
0.0
0
LINE
8
DIM
10
230.000
20
150.000
30
0.0
11
226.536
21
152.000
31
0.0
0
LINE
8
DIM
10
230.000
20
150.000
30
0.0
11
226.536
21
148.000
31
0.0
0
LINE
8
DIM
10
335.000
20
150.000
30
0.0
11
338.464
21
148.000
31
0.0
0
LINE
8
DIM
10
335.000
20
150.000
30
0.0
11
338.464
21
152.000
31
0.0
0
TEXT
8
DIM
10
282.500
20
154.000
30
0.0
40
4.000
1
LINER LENGTH 82/88
50
0.000
72
1
11
282.500
21
154.000
31
0.0
0
LINE
8
DIM
10
348.000
20
112.000
30
0.0
11
348.000
21
136.000
31
0.0
0
LINE
8
DIM
10
348.000
20
112.000
30
0.0
11
346.000
21
108.536
31
0.0
0
LINE
8
DIM
10
348.000
20
112.000
30
0.0
11
350.000
21
108.536
31
0.0
0
LINE
8
DIM
10
348.000
20
136.000
30
0.0
11
350.000
21
139.464
31
0.0
0
LINE
8
DIM
10
348.000
20
136.000
30
0.0
11
346.000
21
139.464
31
0.0
0
TEXT
8
DIM
10
352.000
20
124.000
30
0.0
40
4.000
1
INNER H 22/24
50
90.000
0
LINE
8
DIM
10
243.000
20
103.000
30
0.0
11
321.000
21
103.000
31
0.0
0
LINE
8
DIM
10
243.000
20
103.000
30
0.0
11
239.536
21
105.000
31
0.0
0
LINE
8
DIM
10
243.000
20
103.000
30
0.0
11
239.536
21
101.000
31
0.0
0
LINE
8
DIM
10
321.000
20
103.000
30
0.0
11
324.464
21
101.000
31
0.0
0
LINE
8
DIM
10
321.000
20
103.000
30
0.0
11
324.464
21
105.000
31
0.0
0
TEXT
8
DIM
10
282.000
20
107.000
30
0.0
40
4.000
1
INNER W 24/30
50
0.000
72
1
11
282.000
21
107.000
31
0.0
0
LINE
8
DIM
10
160.000
20
168.000
30
0.0
11
35.000
21
160.000
31
0.0
0
LINE
8
DIM
10
160.000
20
168.000
30
0.0
11
156.415
21
169.775
31
0.0
0
LINE
8
DIM
10
160.000
20
168.000
30
0.0
11
156.671
21
165.783
31
0.0
0
TEXT
8
TEXT
10
38.000
20
161.000
30
0.0
40
4.000
1
eccentric floor slopes to rotor
50
0.000
0
LINE
8
DIM
10
212.000
20
128.000
30
0.0
11
250.000
21
174.000
31
0.0
0
LINE
8
DIM
10
212.000
20
128.000
30
0.0
11
215.748
21
129.397
31
0.0
0
LINE
8
DIM
10
212.000
20
128.000
30
0.0
11
212.664
21
131.944
31
0.0
0
TEXT
8
TEXT
10
253.000
20
175.000
30
0.0
40
4.000
1
mature wheel/rotor reference
50
0.000
0
LINE
8
DIM
10
300.000
20
132.000
30
0.0
11
350.000
21
166.000
31
0.0
0
LINE
8
DIM
10
300.000
20
132.000
30
0.0
11
303.989
21
132.294
31
0.0
0
LINE
8
DIM
10
300.000
20
132.000
30
0.0
11
301.740
21
135.602
31
0.0
0
TEXT
8
TEXT
10
353.000
20
167.000
30
0.0
40
4.000
1
washable liner, draft 2 deg, R3+
50
0.000
0
LINE
8
DIM
10
335.000
20
91.000
30
0.0
11
358.000
21
120.000
31
0.0
0
LINE
8
DIM
10
335.000
20
91.000
30
0.0
11
338.720
21
92.471
31
0.0
0
LINE
8
DIM
10
335.000
20
91.000
30
0.0
11
335.586
21
94.957
31
0.0
0
TEXT
8
TEXT
10
361.000
20
121.000
30
0.0
40
4.000
1
removable bowl/tray
50
0.000
0
TEXT
8
TEXT
10
25.000
20
45.000
30
0.0
40
3.500
1
No dishwasher-safe claim at this stage. Rinse/soak/hand-wash only until validated.
50
0.000
0
ENDSEC
0
EOF
