solid load_cell_force_path_envelope
  facet normal 0 0 1
    outer loop
      vertex -75 -48 -9
      vertex 75 -48 -9
      vertex 75 48 -9
    endloop
  endfacet
  facet normal 0 0 1
    outer loop
      vertex -75 -48 -9
      vertex 75 48 -9
      vertex -75 48 -9
    endloop
  endfacet
  facet normal 0 0 -1
    outer loop
      vertex -75 -48 9
      vertex 75 48 9
      vertex 75 -48 9
    endloop
  endfacet
  facet normal 0 0 -1
    outer loop
      vertex -75 -48 9
      vertex -75 48 9
      vertex 75 48 9
    endloop
  endfacet
  facet normal 0 1 0
    outer loop
      vertex -75 -48 -9
      vertex -75 -48 9
      vertex 75 -48 9
    endloop
  endfacet
  facet normal 0 1 0
    outer loop
      vertex -75 -48 -9
      vertex 75 -48 9
      vertex 75 -48 -9
    endloop
  endfacet
  facet normal -1 0 0
    outer loop
      vertex 75 -48 -9
      vertex 75 -48 9
      vertex 75 48 9
    endloop
  endfacet
  facet normal -1 0 0
    outer loop
      vertex 75 -48 -9
      vertex 75 48 9
      vertex 75 48 -9
    endloop
  endfacet
  facet normal 0 -1 0
    outer loop
      vertex 75 48 -9
      vertex 75 48 9
      vertex -75 48 9
    endloop
  endfacet
  facet normal 0 -1 0
    outer loop
      vertex 75 48 -9
      vertex -75 48 9
      vertex -75 48 -9
    endloop
  endfacet
  facet normal 1 0 -0
    outer loop
      vertex -75 48 -9
      vertex -75 48 9
      vertex -75 -48 9
    endloop
  endfacet
  facet normal 1 0 0
    outer loop
      vertex -75 48 -9
      vertex -75 -48 9
      vertex -75 -48 -9
    endloop
  endfacet
endsolid load_cell_force_path_envelope
