solid chute_liner_standard
  facet normal 0 0 1
    outer loop
      vertex -41 -14 -13
      vertex 41 -14 -13
      vertex 41 14 -13
    endloop
  endfacet
  facet normal 0 0 1
    outer loop
      vertex -41 -14 -13
      vertex 41 14 -13
      vertex -41 14 -13
    endloop
  endfacet
  facet normal 0 0 -1
    outer loop
      vertex -41 -14 13
      vertex 41 14 13
      vertex 41 -14 13
    endloop
  endfacet
  facet normal 0 0 -1
    outer loop
      vertex -41 -14 13
      vertex -41 14 13
      vertex 41 14 13
    endloop
  endfacet
  facet normal 0 1 0
    outer loop
      vertex -41 -14 -13
      vertex -41 -14 13
      vertex 41 -14 13
    endloop
  endfacet
  facet normal 0 1 0
    outer loop
      vertex -41 -14 -13
      vertex 41 -14 13
      vertex 41 -14 -13
    endloop
  endfacet
  facet normal -1 0 0
    outer loop
      vertex 41 -14 -13
      vertex 41 -14 13
      vertex 41 14 13
    endloop
  endfacet
  facet normal -1 0 0
    outer loop
      vertex 41 -14 -13
      vertex 41 14 13
      vertex 41 14 -13
    endloop
  endfacet
  facet normal 0 -1 0
    outer loop
      vertex 41 14 -13
      vertex 41 14 13
      vertex -41 14 13
    endloop
  endfacet
  facet normal 0 -1 0
    outer loop
      vertex 41 14 -13
      vertex -41 14 13
      vertex -41 14 -13
    endloop
  endfacet
  facet normal 1 0 -0
    outer loop
      vertex -41 14 -13
      vertex -41 14 13
      vertex -41 -14 13
    endloop
  endfacet
  facet normal 1 0 0
    outer loop
      vertex -41 14 -13
      vertex -41 -14 13
      vertex -41 -14 -13
    endloop
  endfacet
endsolid chute_liner_standard
