solid chute_liner_wide
  facet normal 0 0 1
    outer loop
      vertex -44 -17.2 -14.2
      vertex 44 -17.2 -14.2
      vertex 44 17.2 -14.2
    endloop
  endfacet
  facet normal 0 0 1
    outer loop
      vertex -44 -17.2 -14.2
      vertex 44 17.2 -14.2
      vertex -44 17.2 -14.2
    endloop
  endfacet
  facet normal 0 0 -1
    outer loop
      vertex -44 -17.2 14.2
      vertex 44 17.2 14.2
      vertex 44 -17.2 14.2
    endloop
  endfacet
  facet normal 0 0 -1
    outer loop
      vertex -44 -17.2 14.2
      vertex -44 17.2 14.2
      vertex 44 17.2 14.2
    endloop
  endfacet
  facet normal 0 1 0
    outer loop
      vertex -44 -17.2 -14.2
      vertex -44 -17.2 14.2
      vertex 44 -17.2 14.2
    endloop
  endfacet
  facet normal 0 1 0
    outer loop
      vertex -44 -17.2 -14.2
      vertex 44 -17.2 14.2
      vertex 44 -17.2 -14.2
    endloop
  endfacet
  facet normal -1 0 0
    outer loop
      vertex 44 -17.2 -14.2
      vertex 44 -17.2 14.2
      vertex 44 17.2 14.2
    endloop
  endfacet
  facet normal -1 0 0
    outer loop
      vertex 44 -17.2 -14.2
      vertex 44 17.2 14.2
      vertex 44 17.2 -14.2
    endloop
  endfacet
  facet normal 0 -1 0
    outer loop
      vertex 44 17.2 -14.2
      vertex 44 17.2 14.2
      vertex -44 17.2 14.2
    endloop
  endfacet
  facet normal 0 -1 0
    outer loop
      vertex 44 17.2 -14.2
      vertex -44 17.2 14.2
      vertex -44 17.2 -14.2
    endloop
  endfacet
  facet normal 1 0 -0
    outer loop
      vertex -44 17.2 -14.2
      vertex -44 17.2 14.2
      vertex -44 -17.2 14.2
    endloop
  endfacet
  facet normal 1 0 0
    outer loop
      vertex -44 17.2 -14.2
      vertex -44 -17.2 14.2
      vertex -44 -17.2 -14.2
    endloop
  endfacet
endsolid chute_liner_wide
